# xmcd
#
# Track frame offsets:
#	150
#	19999
#	37437
#	50307
#	62668
#	71976
#	85276
#	107282
#	123372
#	136273
#	148592
#	164828
#	181334
#
# Disc length: 2571 seconds
#
# Revision: 1
# Processed by: cddbd v1.5.2PL0 Copyright (c) Steve Scherf et al.
# Submitted via: audiograbber 1.83.01
#
DISCID=c10a090d
DTITLE=GUILHERME RIBEIRO E MATEUS SARTORI - INTERPRETAM LUIZ GONZAGA
DYEAR=1900
DGENRE=
TTITLE0=ROSA DO MEARIM
TTITLE1=SANFONA SENTIDA
TTITLE2=ASA BRANCA
TTITLE3=O ADEUS DA ASA BRANCA
TTITLE4=OU CASA OU MORRE
TTITLE5=FICA MAL COM DEUS
TTITLE6=AVE MARIA SERTANEJA
TTITLE7=REI BANTÚ
TTITLE8=ASSUM PRETO
TTITLE9=ACÁCIA AMARELA
TTITLE10=NOITES BRASILEIRAS
TTITLE11=QUI NEM GILÓ
TTITLE12=TENHO ONDE MORAR
EXTD=
EXTT0=
EXTT1=
EXTT2=
EXTT3=
EXTT4=
EXTT5=
EXTT6=
EXTT7=
EXTT8=
EXTT9=
EXTT10=
EXTT11=
EXTT12=
PLAYORDER=
